<?xml version="1.0" encoding="UTF-8" standalone="no"?>
<!DOCTYPE svg PUBLIC "-//W3C//DTD SVG 1.1//EN" "http://www.w3.org/Graphics/SVG/1.1/DTD/svg11.dtd">
<svg width="100%" height="100%" viewBox="0 0 92 92" version="1.1" xmlns="http://www.w3.org/2000/svg" xmlns:xlink="http://www.w3.org/1999/xlink" xml:space="preserve" xmlns:serif="http://www.serif.com/" style="fill-rule:evenodd;clip-rule:evenodd;stroke-linejoin:round;stroke-miterlimit:1.5;">
    <g transform="matrix(1,0,0,1,-4607.21,-677.604)">
        <g transform="matrix(1,0,0,1,0,18)">
            <g transform="matrix(0.583163,0,0,0.583163,1937.05,281.02)">
                <circle cx="4657.29" cy="727.731" r="75.969" style="fill:white;stroke:black;stroke-width:5.14px;"/>
            </g>
        </g>
        <g transform="matrix(1,0,0,1,0,18)">
            <g transform="matrix(1,0,0,1,0,-18)">
                <path d="M4645.66,726.365L4645.66,691.436C4645.66,687.374 4648.95,684.077 4653.02,684.077C4657.08,684.077 4660.37,687.374 4660.37,691.436L4660.37,726.365C4666.07,729.11 4670.01,734.94 4670.01,741.683L4670.01,741.91C4670.01,751.287 4662.39,758.901 4653.02,758.901C4643.64,758.901 4636.02,751.287 4636.02,741.91L4636.02,741.683C4636.02,734.94 4639.96,729.11 4645.66,726.365Z" style="fill:white;stroke:black;stroke-width:3px;"/>
            </g>
        </g>
        <g transform="matrix(1,0,0,1,0,18)">
            <g transform="matrix(1.22754,0,0,1.22754,-1058.98,-187.948)">
                <circle cx="4653.18" cy="743.154" r="7.07" style="fill:rgb(255,34,0);"/>
            </g>
        </g>
        <g transform="matrix(1,0,0,1,0,18)">
            <g transform="matrix(0.857143,0,0,1,664.899,-18)">
                <path d="M4655.77,694.594C4655.77,693.193 4654.44,692.054 4652.8,692.054C4651.17,692.054 4649.84,693.193 4649.84,694.594L4649.84,739.767C4649.84,741.169 4651.17,742.307 4652.8,742.307C4654.44,742.307 4655.77,741.169 4655.77,739.767L4655.77,694.594Z" style="fill:rgb(255,34,0);"/>
            </g>
        </g>
        <g transform="matrix(1,0,0,1,0,18)">
            <g transform="matrix(1,0,0,1,0.832357,-15.2018)">
                <path d="M4653.02,718.691C4653.02,717.857 4652.34,717.181 4651.51,717.181L4645.85,717.181C4645.01,717.181 4644.34,717.857 4644.34,718.691C4644.34,719.525 4645.01,720.201 4645.85,720.201L4651.51,720.201C4652.34,720.201 4653.02,719.525 4653.02,718.691Z"/>
            </g>
        </g>
        <g transform="matrix(1,0,0,1,0,18)">
            <g transform="matrix(1,0,0,1,0.832357,-24.3578)">
                <path d="M4653.02,718.691C4653.02,717.857 4652.34,717.181 4651.51,717.181L4645.85,717.181C4645.01,717.181 4644.34,717.857 4644.34,718.691C4644.34,719.525 4645.01,720.201 4645.85,720.201L4651.51,720.201C4652.34,720.201 4653.02,719.525 4653.02,718.691Z"/>
            </g>
        </g>
        <g transform="matrix(1,0,0,1,0,18)">
            <g transform="matrix(1,0,0,1,0.832357,-32.5946)">
                <path d="M4653.02,718.691C4653.02,717.857 4652.34,717.181 4651.51,717.181L4645.85,717.181C4645.01,717.181 4644.34,717.857 4644.34,718.691C4644.34,719.525 4645.01,720.201 4645.85,720.201L4651.51,720.201C4652.34,720.201 4653.02,719.525 4653.02,718.691Z"/>
            </g>
        </g>
        <g transform="matrix(1,0,0,1,0,18)">
            <g transform="matrix(1,0,0,1,0.832357,-40.2896)">
                <path d="M4653.02,718.691C4653.02,717.857 4652.34,717.181 4651.51,717.181L4645.85,717.181C4645.01,717.181 4644.34,717.857 4644.34,718.691C4644.34,719.525 4645.01,720.201 4645.85,720.201L4651.51,720.201C4652.34,720.201 4653.02,719.525 4653.02,718.691Z"/>
            </g>
        </g>
    </g>
</svg>
