<?xml version="1.0" encoding="UTF-8" standalone="no"?>
<!DOCTYPE svg PUBLIC "-//W3C//DTD SVG 1.1//EN" "http://www.w3.org/Graphics/SVG/1.1/DTD/svg11.dtd">
<svg width="100%" height="100%" viewBox="0 0 92 92" version="1.1" xmlns="http://www.w3.org/2000/svg" xmlns:xlink="http://www.w3.org/1999/xlink" xml:space="preserve" xmlns:serif="http://www.serif.com/" style="fill-rule:evenodd;clip-rule:evenodd;stroke-linejoin:round;stroke-miterlimit:1.5;">
    <g transform="matrix(1,0,0,1,-4607.21,-677.604)">
        <g transform="matrix(1,0,0,1,0,18)">
            <g transform="matrix(0.583163,0,0,0.583163,1937.05,281.02)">
                <circle cx="4657.29" cy="727.731" r="75.969" style="fill:white;stroke:black;stroke-width:5.14px;"/>
            </g>
        </g>
        <g transform="matrix(1,0,0,1,0,18)">
            <g transform="matrix(1.845,0,0,1.25542,-3929.76,-198.712)">
                <path d="M4655.96,716.276L4662.01,716.276C4663.13,716.276 4664.15,717.227 4664.63,718.718C4665.11,720.209 4664.96,721.972 4664.25,723.244C4660.28,730.313 4654.24,741.089 4650.7,747.404C4650.27,748.179 4649.55,748.469 4648.91,748.13C4648.26,747.791 4647.84,746.896 4647.84,745.892C4647.84,737.486 4647.84,724.066 4647.84,724.066L4641.78,724.066C4640.66,724.066 4639.64,723.115 4639.16,721.624C4638.69,720.133 4638.84,718.371 4639.55,717.098C4643.51,710.029 4649.56,699.254 4653.1,692.938C4653.53,692.164 4654.25,691.873 4654.89,692.212C4655.53,692.551 4655.96,693.446 4655.96,694.45C4655.96,702.856 4655.96,716.276 4655.96,716.276Z" style="fill:rgb(255,214,0);"/>
                <path d="M4655.96,716.276L4662.01,716.276C4663.13,716.276 4664.15,717.227 4664.63,718.718C4665.11,720.209 4664.96,721.972 4664.25,723.244L4650.7,747.404C4650.27,748.179 4649.55,748.469 4648.91,748.13C4648.26,747.791 4647.84,746.896 4647.84,745.892L4647.84,724.066L4641.78,724.066C4640.66,724.066 4639.64,723.115 4639.16,721.624C4638.69,720.133 4638.84,718.371 4639.55,717.098L4653.1,692.938C4653.53,692.164 4654.25,691.873 4654.89,692.212C4655.53,692.551 4655.96,693.446 4655.96,694.45L4655.96,716.276ZM4649.46,745.858L4662.99,721.724C4663.31,721.166 4663.37,720.392 4663.16,719.738C4662.95,719.083 4662.51,718.666 4662.01,718.666L4655.96,718.666C4655.07,718.666 4654.34,717.596 4654.34,716.276L4654.34,694.484L4640.8,718.618C4640.49,719.177 4640.43,719.95 4640.64,720.605C4640.85,721.259 4641.29,721.676 4641.78,721.676L4647.84,721.676C4648.73,721.676 4649.46,722.746 4649.46,724.066L4649.46,745.858Z"/>
            </g>
        </g>
    </g>
</svg>
