<?xml version="1.0" encoding="UTF-8" standalone="no"?>
<!DOCTYPE svg PUBLIC "-//W3C//DTD SVG 1.1//EN" "http://www.w3.org/Graphics/SVG/1.1/DTD/svg11.dtd">
<svg width="100%" height="100%" viewBox="0 0 150 188" version="1.1" xmlns="http://www.w3.org/2000/svg" xmlns:xlink="http://www.w3.org/1999/xlink" xml:space="preserve" xmlns:serif="http://www.serif.com/" style="fill-rule:evenodd;clip-rule:evenodd;stroke-linejoin:round;stroke-miterlimit:2;">
    <g transform="matrix(1,0,0,1,-1637.49,-1324.19)">
        <g transform="matrix(1,0,0,1,69.6396,-19.4395)">
            <g transform="matrix(1,0,0,1,127.18,54.5055)">
                <g transform="matrix(1,0,0,1,-69.6396,21.4395)">
                    <path d="M1526,1345.72C1518.41,1343.53 1512.25,1337 1510.68,1328.42C1508.51,1316.54 1515.99,1305.21 1527.36,1303.13C1527.78,1303.06 1528.19,1302.99 1528.61,1302.94C1533.99,1282.65 1552.49,1267.68 1574.46,1267.68C1594.93,1267.68 1612.39,1280.67 1619.04,1298.85C1639.04,1299.93 1655.84,1315.99 1657.79,1337.07C1658.4,1343.68 1657.49,1350.07 1655.34,1355.88C1657.56,1360.41 1659.01,1365.44 1659.51,1370.79C1661.64,1393.9 1645.12,1414.35 1622.63,1416.43C1614.75,1417.16 1607.17,1415.53 1600.56,1412.12C1604.07,1415.95 1606.5,1421.28 1607.05,1427.32C1608.24,1440.09 1600.65,1451.25 1590.13,1452.23C1579.6,1453.2 1570.1,1443.62 1568.92,1430.85C1568.76,1429.15 1568.76,1427.47 1568.9,1425.84C1568.35,1425.86 1573.19,1456.02 1547.05,1455.18C1535.49,1454.81 1526.76,1443.52 1527.98,1426.87C1528.56,1418.83 1528.66,1412.23 1532.62,1407.08C1529.52,1401.82 1527.5,1394.1 1526.89,1387.59C1526.25,1380.59 1527.31,1373.83 1529.73,1367.75C1527.76,1363.46 1526.46,1358.75 1526,1353.75C1525.75,1351.03 1525.76,1348.34 1526,1345.72Z" style="fill:white;fill-opacity:0.8;"/>
                </g>
                <g transform="matrix(1,0,0,1,-69.6396,21.4395)">
                    <path d="M1537.47,1285.44C1546.17,1274.61 1559.51,1267.68 1574.46,1267.68C1594.93,1267.68 1612.39,1280.67 1619.04,1298.85C1639.04,1299.93 1655.84,1315.99 1657.79,1337.07C1658.4,1343.68 1657.49,1350.07 1655.34,1355.88C1657.56,1360.41 1659.01,1365.44 1659.51,1370.79C1660.9,1385.82 1654.39,1399.73 1643.48,1408.19C1649.84,1400.01 1653.23,1389.37 1652.19,1378.1C1651.69,1372.76 1650.24,1367.73 1648.03,1363.19C1650.17,1357.38 1651.09,1350.99 1650.48,1344.38C1648.53,1323.31 1631.72,1307.25 1611.72,1306.17C1605.08,1287.99 1587.62,1275 1567.15,1275C1555.92,1275 1545.6,1278.91 1537.47,1285.44ZM1606.45,1423.58C1606.73,1424.79 1606.93,1426.04 1607.05,1427.32C1607.98,1437.35 1603.51,1446.38 1596.45,1450.27C1599,1445.93 1600.28,1440.45 1599.74,1434.64C1599.18,1428.6 1596.76,1423.27 1593.24,1419.43C1597.33,1421.54 1601.78,1422.97 1606.45,1423.58Z" style="fill:white;"/>
                </g>
                <g transform="matrix(1,0,0,1,-69.4898,19.4917)">
                    <path d="M1520.62,1307.73C1525.59,1304.24 1532.12,1302.12 1539.26,1302.12C1554.84,1302.12 1567.49,1312.22 1567.49,1324.65C1567.49,1333.69 1560.8,1341.5 1551.16,1345.09C1557.05,1340.96 1560.76,1334.9 1560.76,1328.16C1560.76,1315.73 1548.11,1305.63 1532.53,1305.63C1528.27,1305.63 1524.24,1306.38 1520.62,1307.73Z" style="fill:white;"/>
                </g>
                <g transform="matrix(0.866025,0.5,-0.516552,0.894693,863.085,-596.696)">
                    <path d="M1484.49,1335.68C1484.49,1334.8 1483.75,1334.09 1482.84,1334.09C1481.93,1334.09 1481.19,1334.8 1481.19,1335.68L1481.19,1347.78C1481.19,1348.66 1481.93,1349.37 1482.84,1349.37C1483.75,1349.37 1484.49,1348.66 1484.49,1347.78L1484.49,1335.68Z" style="fill:white;"/>
                </g>
                <g transform="matrix(0.866025,0.5,-0.516552,0.894693,877.019,-597.745)">
                    <path d="M1484.49,1335.68C1484.49,1334.8 1483.75,1334.09 1482.84,1334.09C1481.93,1334.09 1481.19,1334.8 1481.19,1335.68L1481.19,1347.78C1481.19,1348.66 1481.93,1349.37 1482.84,1349.37C1483.75,1349.37 1484.49,1348.66 1484.49,1347.78L1484.49,1335.68Z" style="fill:white;"/>
                </g>
            </g>
        </g>
    </g>
</svg>
