<?xml version="1.0" encoding="UTF-8" standalone="no"?>
<!DOCTYPE svg PUBLIC "-//W3C//DTD SVG 1.1//EN" "http://www.w3.org/Graphics/SVG/1.1/DTD/svg11.dtd">
<svg width="100%" height="100%" viewBox="0 0 133 106" version="1.1" xmlns="http://www.w3.org/2000/svg" xmlns:xlink="http://www.w3.org/1999/xlink" xml:space="preserve" xmlns:serif="http://www.serif.com/" style="fill-rule:evenodd;clip-rule:evenodd;stroke-linejoin:round;stroke-miterlimit:2;">
    <g transform="matrix(1,0,0,1,-548.447,-1697.93)">
        <g transform="matrix(1,0,0,1,69.6396,-19.4395)">
            <g transform="matrix(1,0,0,1,127.18,54.5055)">
                <g transform="matrix(1,0,0,1,-69.6396,21.4395)">
                    <path d="M456.888,1712.26C454.958,1712.66 452.961,1712.87 450.915,1712.87C434.552,1712.87 421.267,1699.58 421.267,1683.22C421.267,1666.85 434.552,1653.57 450.915,1653.57C457.053,1653.57 462.758,1655.44 467.491,1658.64C470.199,1654.71 474.726,1652.14 479.849,1652.14C481.709,1652.14 483.491,1652.48 485.135,1653.1C490.078,1646.04 498.271,1641.42 507.533,1641.42C522.615,1641.42 534.859,1653.67 534.859,1668.75C534.859,1674.27 533.217,1679.41 530.395,1683.72C532.308,1686.46 533.43,1689.8 533.43,1693.4C533.43,1694.5 533.326,1695.57 533.125,1696.61C544.716,1699.03 553.434,1709.31 553.434,1721.62C553.434,1735.71 541.99,1747.16 527.894,1747.16C518.361,1747.16 510.041,1741.92 505.654,1734.17C500.679,1740.96 492.651,1745.37 483.6,1745.37C468.518,1745.37 456.273,1733.13 456.273,1718.04C456.273,1716.06 456.485,1714.13 456.888,1712.26Z" style="fill:white;fill-opacity:0.8;"/>
                </g>
                <g transform="matrix(1,0,0,1,-69.6396,21.4395)">
                    <path d="M426.998,1665.7C432.396,1658.35 441.102,1653.57 450.915,1653.57C457.053,1653.57 462.758,1655.44 467.491,1658.64C470.199,1654.71 474.726,1652.14 479.849,1652.14C481.675,1652.14 483.426,1652.47 485.045,1653.07C482.604,1654.85 480.469,1657.02 478.734,1659.5C477.09,1658.88 475.308,1658.54 473.448,1658.54C468.324,1658.54 463.797,1661.11 461.09,1665.04C456.357,1661.84 450.652,1659.97 444.514,1659.97C437.964,1659.97 431.907,1662.1 426.998,1665.7ZM485.278,1652.9C490.236,1645.95 498.359,1641.42 507.533,1641.42C522.615,1641.42 534.859,1653.67 534.859,1668.75C534.859,1674.27 533.217,1679.41 530.395,1683.72C532.308,1686.46 533.43,1689.8 533.43,1693.4C533.43,1694.5 533.326,1695.57 533.125,1696.61C544.716,1699.03 553.434,1709.31 553.434,1721.62C553.434,1730.3 549.093,1737.97 542.465,1742.59C545.344,1738.45 547.033,1733.43 547.033,1728.02C547.033,1715.71 538.315,1705.43 526.724,1703.01C526.924,1701.97 527.029,1700.9 527.029,1699.8C527.029,1696.2 525.907,1692.86 523.994,1690.12C526.816,1685.82 528.458,1680.67 528.458,1675.15C528.458,1660.07 516.214,1647.82 501.132,1647.82C495.223,1647.82 489.75,1649.7 485.278,1652.9Z" style="fill:white;"/>
                </g>
            </g>
        </g>
    </g>
</svg>
