<?xml version="1.0" encoding="UTF-8" standalone="no"?>
<!DOCTYPE svg PUBLIC "-//W3C//DTD SVG 1.1//EN" "http://www.w3.org/Graphics/SVG/1.1/DTD/svg11.dtd">
<svg width="100%" height="100%" viewBox="0 0 76 65" version="1.1" xmlns="http://www.w3.org/2000/svg" xmlns:xlink="http://www.w3.org/1999/xlink" xml:space="preserve" xmlns:serif="http://www.serif.com/" style="fill-rule:evenodd;clip-rule:evenodd;stroke-linejoin:round;stroke-miterlimit:2;">
    <g transform="matrix(1,0,0,1,-1737.79,-1571.64)">
        <g transform="matrix(1,0,0,1,69.6396,-19.4395)">
            <g transform="matrix(1,0,0,1,127.18,54.5055)">
                <g transform="matrix(1,0,0,1,-69.6396,21.4395)">
                    <path d="M1627.08,1554.84C1617.78,1553.52 1610.61,1545.52 1610.61,1535.86C1610.61,1525.29 1619.2,1516.7 1629.78,1516.7C1635.12,1516.7 1639.95,1518.89 1643.42,1522.41C1644.28,1518.26 1647.95,1515.13 1652.36,1515.13C1655.46,1515.13 1658.2,1516.68 1659.85,1519.05C1661.69,1518.49 1663.65,1518.19 1665.68,1518.19C1676.77,1518.19 1685.78,1527.19 1685.78,1538.28C1685.78,1545.3 1682.17,1551.48 1676.72,1555.07C1679.16,1557.67 1680.66,1561.17 1680.66,1565.01C1680.66,1573.03 1674.15,1579.54 1666.13,1579.54C1660.09,1579.54 1654.91,1575.85 1652.72,1570.6C1650.02,1572.62 1646.66,1573.82 1643.03,1573.82C1634.09,1573.82 1626.84,1566.57 1626.84,1557.63C1626.84,1556.68 1626.92,1555.74 1627.08,1554.84Z" style="fill:white;fill-opacity:0.8;"/>
                </g>
                <g transform="matrix(1,0,0,1,-69.6396,21.4395)">
                    <path d="M1615.02,1523.64C1618.54,1519.4 1623.84,1516.7 1629.78,1516.7C1634.62,1516.7 1639.04,1518.5 1642.42,1521.46C1641.68,1522.49 1641.15,1523.67 1640.89,1524.95C1637.41,1521.42 1632.58,1519.24 1627.24,1519.24C1622.6,1519.24 1618.34,1520.89 1615.02,1523.64ZM1644.77,1519.2C1646.4,1516.75 1649.19,1515.13 1652.36,1515.13C1655.46,1515.13 1658.2,1516.68 1659.85,1519.05C1661.69,1518.49 1663.65,1518.19 1665.68,1518.19C1676.77,1518.19 1685.78,1527.19 1685.78,1538.28C1685.78,1544.47 1682.97,1550.01 1678.57,1553.7C1681.48,1550.21 1683.24,1545.72 1683.24,1540.82C1683.24,1529.73 1674.24,1520.72 1663.15,1520.72C1661.12,1520.72 1659.16,1521.03 1657.31,1521.59C1655.66,1519.22 1652.92,1517.67 1649.82,1517.67C1647.95,1517.67 1646.22,1518.23 1644.77,1519.2ZM1676.99,1555.37C1679.27,1557.94 1680.66,1561.31 1680.66,1565.01C1680.66,1569.66 1678.46,1573.81 1675.05,1576.47C1676.98,1574.01 1678.12,1570.91 1678.12,1567.55C1678.12,1563.7 1676.62,1560.21 1674.18,1557.61C1675.19,1556.94 1676.13,1556.2 1676.99,1555.37Z" style="fill:white;"/>
                </g>
            </g>
        </g>
    </g>
</svg>
