<?xml version="1.0" encoding="UTF-8" standalone="no"?>
<!DOCTYPE svg PUBLIC "-//W3C//DTD SVG 1.1//EN" "http://www.w3.org/Graphics/SVG/1.1/DTD/svg11.dtd">
<svg width="100%" height="100%" viewBox="0 0 137 98" version="1.1" xmlns="http://www.w3.org/2000/svg" xmlns:xlink="http://www.w3.org/1999/xlink" xml:space="preserve" xmlns:serif="http://www.serif.com/" style="fill-rule:evenodd;clip-rule:evenodd;stroke-linejoin:round;stroke-miterlimit:2;">
    <g transform="matrix(1,0,0,1,-750.271,-1553.15)">
        <g transform="matrix(1,0,0,1,69.6396,-19.4395)">
            <g transform="matrix(1,0,0,1,127.18,54.5055)">
                <g transform="matrix(1,0,0,1,-69.6396,21.4395)">
                    <path d="M675.881,1573.62C671.059,1575.93 665.657,1577.23 659.955,1577.23C639.609,1577.23 623.091,1560.71 623.091,1540.37C623.091,1520.02 639.609,1503.5 659.955,1503.5C667.293,1503.5 674.134,1505.65 679.88,1509.35C684.247,1501.76 692.441,1496.64 701.82,1496.64C713.798,1496.64 723.843,1504.99 726.451,1516.18C729.666,1514.3 733.407,1513.22 737.398,1513.22C749.385,1513.22 759.116,1522.95 759.116,1534.94C759.116,1546.03 750.788,1555.19 740.05,1556.5C740.186,1557.72 740.256,1558.97 740.256,1560.23C740.256,1578.76 725.21,1593.81 706.678,1593.81C692.904,1593.81 681.057,1585.5 675.881,1573.62Z" style="fill:white;fill-opacity:0.8;"/>
                </g>
                <g transform="matrix(1,0,0,1,-69.6396,21.4395)">
                    <path d="M633.927,1514.27C640.597,1507.62 649.799,1503.5 659.955,1503.5C666.688,1503.5 673.001,1505.31 678.436,1508.47C676.714,1510.13 675.227,1512.03 674.028,1514.11C668.281,1510.41 661.441,1508.26 654.103,1508.26C646.658,1508.26 639.726,1510.47 633.927,1514.27ZM683.138,1504.9C687.764,1499.83 694.424,1496.64 701.82,1496.64C713.798,1496.64 723.843,1504.99 726.451,1516.18C729.666,1514.3 733.407,1513.22 737.398,1513.22C749.385,1513.22 759.116,1522.95 759.116,1534.94C759.116,1543.1 754.607,1550.21 747.948,1553.92C751.259,1550.11 753.264,1545.13 753.264,1539.69C753.264,1527.71 743.532,1517.98 731.545,1517.98C727.555,1517.98 723.814,1519.05 720.599,1520.93C717.991,1509.75 707.946,1501.4 695.967,1501.4C691.286,1501.4 686.9,1502.67 683.138,1504.9ZM740.25,1559.59C740.254,1559.81 740.256,1560.02 740.256,1560.23C740.256,1572.1 734.081,1582.54 724.771,1588.51C730.727,1582.45 734.403,1574.14 734.403,1564.98C734.403,1563.72 734.333,1562.48 734.198,1561.25C736.325,1560.99 738.358,1560.42 740.25,1559.59Z" style="fill:white;"/>
                </g>
            </g>
        </g>
    </g>
</svg>
