<?xml version="1.0" encoding="UTF-8" standalone="no"?>
<!DOCTYPE svg PUBLIC "-//W3C//DTD SVG 1.1//EN" "http://www.w3.org/Graphics/SVG/1.1/DTD/svg11.dtd">
<svg width="100%" height="100%" viewBox="0 0 64 48" version="1.1" xmlns="http://www.w3.org/2000/svg" xmlns:xlink="http://www.w3.org/1999/xlink" xml:space="preserve" xmlns:serif="http://www.serif.com/" style="fill-rule:evenodd;clip-rule:evenodd;stroke-linejoin:round;stroke-miterlimit:2;">
    <g transform="matrix(1,0,0,1,-1829.4,-1469.27)">
        <g transform="matrix(1,0,0,1,69.6396,-19.4395)">
            <g transform="matrix(1,0,0,1,127.18,54.5055)">
                <g transform="matrix(1,0,0,1,-69.6396,21.4395)">
                    <path d="M1715.08,1449.42C1707.82,1448.43 1702.22,1442.2 1702.22,1434.67C1702.22,1426.46 1708.89,1419.79 1717.1,1419.79C1719.43,1419.79 1721.63,1420.32 1723.59,1421.28C1725.3,1419.07 1727.97,1417.65 1730.97,1417.65C1731.43,1417.65 1731.88,1417.68 1732.32,1417.74C1734.34,1414.74 1737.76,1412.77 1741.64,1412.77C1747.56,1412.77 1752.41,1417.36 1752.83,1423.16C1755.24,1425.52 1756.91,1428.64 1757.43,1432.14C1762.31,1433.99 1765.78,1438.7 1765.78,1444.23C1765.78,1451.36 1759.99,1457.15 1752.86,1457.15C1747.98,1457.15 1743.73,1454.44 1741.53,1450.44C1740.71,1450.43 1739.9,1450.36 1739.11,1450.23C1737.83,1451.56 1736.19,1452.52 1734.35,1452.97C1733.07,1456.95 1729.34,1459.83 1724.94,1459.83C1719.49,1459.83 1715.06,1455.41 1715.06,1449.96C1715.06,1449.78 1715.07,1449.6 1715.08,1449.42Z" style="fill:white;fill-opacity:0.8;"/>
                </g>
                <g transform="matrix(1,0,0,1,-69.6396,21.4395)">
                    <path d="M1705.19,1425.75C1707.91,1422.13 1712.23,1419.79 1717.1,1419.79C1719.43,1419.79 1721.63,1420.32 1723.59,1421.28C1725.3,1419.07 1727.97,1417.65 1730.97,1417.65C1731.42,1417.65 1731.86,1417.68 1732.29,1417.74C1731.13,1418.54 1730.12,1419.56 1729.33,1420.74C1728.89,1420.67 1728.44,1420.64 1727.98,1420.64C1724.97,1420.64 1722.3,1422.06 1720.6,1424.27C1718.63,1423.32 1716.43,1422.78 1714.11,1422.78C1710.76,1422.78 1707.68,1423.89 1705.19,1425.75ZM1732.36,1417.7C1734.37,1414.72 1737.78,1412.77 1741.64,1412.77C1747.56,1412.77 1752.41,1417.36 1752.83,1423.16C1755.24,1425.52 1756.91,1428.64 1757.43,1432.14C1762.31,1433.99 1765.78,1438.7 1765.78,1444.23C1765.78,1448.56 1763.65,1452.39 1760.38,1454.74C1761.89,1452.62 1762.79,1450.03 1762.79,1447.22C1762.79,1441.7 1759.32,1436.98 1754.44,1435.13C1753.91,1431.64 1752.25,1428.52 1749.83,1426.16C1749.41,1420.35 1744.56,1415.77 1738.65,1415.77C1736.32,1415.77 1734.15,1416.48 1732.36,1417.7ZM1733.25,1455.29C1732.48,1456.49 1731.46,1457.51 1730.26,1458.28C1730.72,1457.56 1731.09,1456.79 1731.35,1455.97C1732.01,1455.81 1732.65,1455.58 1733.25,1455.29Z" style="fill:white;"/>
                </g>
            </g>
        </g>
    </g>
</svg>
