<?xml version="1.0" encoding="UTF-8" standalone="no"?>
<!DOCTYPE svg PUBLIC "-//W3C//DTD SVG 1.1//EN" "http://www.w3.org/Graphics/SVG/1.1/DTD/svg11.dtd">
<svg width="100%" height="100%" viewBox="0 0 494 494" version="1.1" xmlns="http://www.w3.org/2000/svg" xmlns:xlink="http://www.w3.org/1999/xlink" xml:space="preserve" xmlns:serif="http://www.serif.com/" style="fill-rule:evenodd;clip-rule:evenodd;stroke-linejoin:round;stroke-miterlimit:2;">
    <g transform="matrix(1,0,0,1,-3202,-267)">
        <g transform="matrix(1,0,0,1,-0.0939668,20.4912)">
            <g transform="matrix(0.796774,0,0,0.796774,701.02,89.5443)">
                <circle cx="3449" cy="507" r="310" style="fill:white;fill-opacity:0;"/>
            </g>
        </g>
        <g transform="matrix(1,0,0,1,-0.0939668,20.4912)">
            <g transform="matrix(0.9764,0,0,0.980115,81.9193,-14.8429)">
                <path d="M3479.28,303.25C3585.23,317.778 3666.97,408.758 3666.97,518.679C3666.97,628.599 3585.23,719.58 3479.28,734.107C3559.99,695.978 3615.9,613.805 3615.9,518.679C3615.9,423.552 3559.99,341.379 3479.28,303.25Z" style="fill-opacity:0.1;"/>
            </g>
        </g>
    </g>
</svg>
