<?xml version="1.0" encoding="UTF-8" standalone="no"?>
<!DOCTYPE svg PUBLIC "-//W3C//DTD SVG 1.1//EN" "http://www.w3.org/Graphics/SVG/1.1/DTD/svg11.dtd">
<svg width="100%" height="100%" viewBox="0 0 92 92" version="1.1" xmlns="http://www.w3.org/2000/svg" xmlns:xlink="http://www.w3.org/1999/xlink" xml:space="preserve" xmlns:serif="http://www.serif.com/" style="fill-rule:evenodd;clip-rule:evenodd;stroke-linejoin:round;stroke-miterlimit:1.5;">
    <g transform="matrix(1,0,0,1,-4607.21,-677.604)">
        <g transform="matrix(1,0,0,1,0,18)">
            <g transform="matrix(0.583163,0,0,0.583163,1937.05,281.02)">
                <circle cx="4657.29" cy="727.731" r="75.969" style="fill:white;stroke:black;stroke-width:5.14px;"/>
            </g>
        </g>
        <g transform="matrix(1,0,0,1,0,18)">
            <g transform="matrix(1,0,0,1,0,-18)">
                <path d="M4642.62,733.238C4635.47,732.021 4630.54,705.601 4653.02,705.601C4675.49,705.601 4671.07,731.899 4663.75,733.13L4661.7,742.125L4644.83,742.125L4642.62,733.238Z" style="stroke:black;stroke-width:3px;"/>
            </g>
            <g transform="matrix(1,0,0,1,0,-18)">
                <path d="M4650.79,733.834L4653.15,732.391L4655.58,733.778L4653.15,730.116L4650.79,733.834Z" style="stroke:white;stroke-width:3px;"/>
            </g>
            <g transform="matrix(1,0,0,1,0,-18)">
                <path d="M4640.45,724.729C4640.02,724.143 4639.86,723.4 4640.01,722.686C4640.12,721.75 4640.31,720.946 4640.5,720.268C4640.98,718.954 4642.43,718.265 4643.75,718.717C4645.1,719.133 4646.82,719.716 4648.3,720.222C4650.15,720.853 4651.19,722.826 4650.65,724.709C4650.61,724.861 4650.57,725.011 4650.52,725.157C4650.2,726.288 4649.17,727.066 4647.99,727.062C4644.7,727.065 4641.86,726.613 4640.45,724.729Z" style="fill:white;stroke:white;stroke-width:2px;"/>
            </g>
            <g transform="matrix(-1,0,0,1,9306.38,-18)">
                <path d="M4640.45,724.729C4640.02,724.143 4639.86,723.4 4640.01,722.686C4640.12,721.75 4640.31,720.946 4640.5,720.268C4640.98,718.954 4642.43,718.265 4643.75,718.717C4645.1,719.133 4646.82,719.716 4648.3,720.222C4650.15,720.853 4651.19,722.826 4650.65,724.709C4650.61,724.861 4650.57,725.011 4650.52,725.157C4650.2,726.288 4649.17,727.066 4647.99,727.062C4644.7,727.065 4641.86,726.613 4640.45,724.729Z" style="fill:white;stroke:white;stroke-width:2px;"/>
            </g>
            <g transform="matrix(1,0,0,1,0,-18)">
                <path d="M4636.09,712.729C4637.45,710.158 4639.27,708.04 4641.64,706.469L4639.95,704.695C4646.57,695.825 4630.36,689.892 4630.19,701.07C4618.83,701.254 4625.53,718.051 4633.83,710.659L4636.09,712.729Z"/>
            </g>
            <g transform="matrix(-1,0,0,1,9306.36,-18)">
                <path d="M4636.09,712.729C4637.45,710.158 4639.27,708.04 4641.64,706.469L4639.95,704.695C4646.57,695.825 4630.36,689.892 4630.19,701.07C4618.83,701.254 4625.53,718.051 4633.83,710.659L4636.09,712.729Z"/>
            </g>
            <g transform="matrix(-1,0,0,-1,9306.36,1429.57)">
                <path d="M4638.17,714.809C4638.96,714.104 4639.81,713.466 4640.83,713.033L4642.1,706.963L4639.95,704.695C4646.57,695.825 4630.36,689.892 4630.19,701.07C4618.83,701.254 4625.53,718.051 4633.83,710.659L4638.17,714.809Z"/>
            </g>
            <g transform="matrix(1,0,0,-1,0.0537578,1429.57)">
                <path d="M4638.17,714.809C4638.96,714.104 4639.81,713.466 4640.83,713.033L4642.1,706.963L4639.95,704.695C4646.57,695.825 4630.36,689.892 4630.19,701.07C4618.83,701.254 4625.53,718.051 4633.83,710.659L4638.17,714.809Z"/>
            </g>
        </g>
    </g>
</svg>
