<?xml version="1.0" encoding="UTF-8" standalone="no"?>
<!DOCTYPE svg PUBLIC "-//W3C//DTD SVG 1.1//EN" "http://www.w3.org/Graphics/SVG/1.1/DTD/svg11.dtd">
<svg width="100%" height="100%" viewBox="0 0 92 92" version="1.1" xmlns="http://www.w3.org/2000/svg" xmlns:xlink="http://www.w3.org/1999/xlink" xml:space="preserve" xmlns:serif="http://www.serif.com/" style="fill-rule:evenodd;clip-rule:evenodd;stroke-linejoin:round;stroke-miterlimit:1.5;">
    <g transform="matrix(1,0,0,1,-4607.21,-677.604)">
        <g transform="matrix(1,0,0,1,0,18)">
            <g transform="matrix(0.583163,0,0,0.583163,1937.05,281.02)">
                <circle cx="4657.29" cy="727.731" r="75.969" style="fill:white;stroke:black;stroke-width:5.14px;"/>
            </g>
        </g>
        <g transform="matrix(1,0,0,1,0,18)">
            <g transform="matrix(1,0,0,1,-1.8099,5.02735)">
                <g transform="matrix(1.33833,0,0,1.33833,-1576.81,-270.155)">
                    <path d="M4639.17,737.113C4638.53,737.113 4638.05,736.01 4637.54,735.758C4635.8,734.888 4634.45,732.297 4633.48,730.339C4632.58,728.541 4634.73,726.744 4633.88,725.055C4633.3,723.885 4632.8,722.37 4632.8,720.72C4632.8,720.461 4632.63,719.259 4632.8,719.094C4633.61,718.283 4634.52,717.644 4635.51,716.656C4636.29,715.871 4637.43,715.817 4638.22,715.03C4638.75,714.498 4640.27,714.738 4640.79,714.217C4641.07,713.94 4643.36,714.213 4643.64,714.353C4644.97,715.019 4646.68,715.437 4648.38,715.437C4648.81,715.437 4649.77,715.623 4650.14,715.437C4652.46,714.276 4653.96,712.291 4655.56,710.695C4656.14,710.116 4657.26,710.113 4658,709.747C4658.62,709.436 4660.81,708.918 4661.65,709.34C4663.21,710.116 4665.33,710.167 4666.4,711.237C4667.01,711.855 4667.25,713.313 4668.02,714.082C4668.1,714.164 4667.92,714.404 4668.02,714.488C4669.88,715.98 4670.59,719.086 4672.22,720.72C4672.7,721.2 4672.16,722.215 4672.49,722.888C4672.73,723.353 4672.89,725.475 4672.63,726.004C4671.34,728.582 4670.04,730.219 4668.02,732.235C4667.59,732.673 4667.4,733.537 4666.94,733.997C4666.56,734.374 4666.93,735.238 4666.67,735.758C4666.08,736.935 4665.99,739.017 4665.99,740.228C4665.99,740.654 4666.26,742.665 4665.99,742.938C4665.63,743.302 4665.77,744.24 4665.31,744.699C4664.75,745.264 4663.96,745.644 4663.42,746.189C4663.21,746.4 4662.31,746.325 4661.93,746.325C4660.47,746.325 4658.8,746.524 4657.59,745.918C4657.17,745.708 4656.58,745.887 4656.1,745.647C4655.07,745.131 4653.08,744.078 4652.58,743.073C4651.2,740.311 4649.62,737.543 4647.97,735.893C4647.9,735.826 4646.41,735.826 4646.35,735.893C4644.76,737.481 4642.7,737.383 4640.11,737.383L4639.17,737.113Z" style="fill:rgb(255,240,0);stroke:black;stroke-width:1.49px;stroke-linejoin:miter;"/>
                </g>
                <g transform="matrix(1.33833,0,0,1.33833,-1581.58,-265.794)">
                    <path d="M4675.15,737.855C4674.92,737.688 4675.05,736.941 4675.05,736.663C4675.05,735.447 4675.7,735.038 4676.35,734.387C4676.99,733.742 4678.9,733.737 4680.14,733.737C4680.46,733.737 4681.23,733.632 4681.44,733.845C4681.97,734.378 4682.64,734.932 4683.18,735.471C4683.25,735.543 4683.1,735.832 4683.18,735.904C4683.57,736.298 4683.4,737.194 4683.18,737.638C4682.71,738.576 4682.47,739.423 4681.77,740.131C4681.53,740.367 4681.17,740.401 4681.01,740.564C4680.9,740.673 4680.47,740.456 4680.36,740.564C4679.99,740.927 4678.74,740.791 4678.41,740.456C4678.32,740.368 4677.68,740.456 4677.54,740.456C4676.72,740.456 4676.02,740.6 4676.02,739.589L4675.15,737.855Z" style="fill:rgb(255,240,0);stroke:black;stroke-width:1.49px;stroke-linejoin:miter;"/>
                </g>
                <g transform="matrix(1.33833,0,0,1.33833,-1576.81,-270.155)">
                    <path d="M4647.55,710.156C4647.45,710.052 4646.43,709.099 4646.33,709.047C4645.82,708.791 4645.57,708.533 4645.33,708.048C4644.74,706.86 4645.59,705.066 4646.22,704.441C4646.46,704.2 4646.77,704.249 4647.05,704.108C4647.39,703.937 4648.21,704.02 4648.49,704.163C4648.58,704.208 4648.76,704.152 4648.83,704.219C4648.96,704.351 4649.33,704.391 4649.44,704.496C4649.76,704.817 4650.11,704.892 4650.38,705.162C4650.78,705.564 4650.85,706.293 4651.27,706.716C4651.42,706.872 4651.3,707.248 4651.43,707.382C4651.59,707.534 4651.92,708.465 4651.71,708.88C4651.49,709.324 4651.17,709.422 4650.88,709.712C4650.74,709.849 4650.34,709.756 4650.21,709.879C4650.06,710.029 4649.7,710.062 4649.55,710.212C4649.41,710.349 4649.26,710.612 4649.1,710.767C4649.02,710.85 4648.8,710.794 4648.72,710.878C4648.69,710.905 4648.08,710.905 4648.05,710.878C4647.85,710.674 4647.75,710.36 4647.55,710.156Z" style="fill:rgb(255,240,0);stroke:black;stroke-width:1.49px;stroke-linejoin:miter;"/>
                </g>
                <g transform="matrix(1.33833,0,0,1.33833,-1574.24,-267.775)">
                    <path d="M4659.84,710.578C4658.9,710.578 4657.68,710.517 4657.2,710.994C4657.06,711.133 4656.65,710.994 4656.51,711.133C4656.36,711.284 4656.29,711.491 4656.16,711.618C4655.96,711.818 4655.76,712.818 4656.09,713.144C4656.29,713.341 4656.54,713.457 4656.71,713.63C4656.77,713.688 4657,713.572 4657.06,713.63C4657.41,713.977 4659.05,713.63 4659.49,713.63C4659.74,713.63 4660.19,713.569 4660.32,713.699C4660.68,714.054 4660.36,715.261 4660.11,715.503C4660.04,715.572 4660.18,715.849 4660.11,715.919C4660.08,715.953 4659.93,716.572 4660.04,716.682C4660.26,716.9 4660.71,716.667 4661.02,716.82C4661.44,717.035 4662.4,716.961 4662.75,717.306C4663.06,717.613 4663.04,718.429 4663.37,718.763C4663.56,718.952 4663.73,719.539 4663.93,719.734C4664.29,720.098 4664.61,720.412 4664.97,720.774C4665,720.803 4665.63,720.803 4665.66,720.774C4665.99,720.442 4666.36,720.183 4666.36,719.595C4666.36,719.518 4666.4,719.158 4666.36,719.109C4665.97,718.728 4666.06,717.5 4665.66,717.098C4665.52,716.951 4665.62,716.503 4665.45,716.335C4665.29,716.173 4665.48,715.664 4665.32,715.503C4664.41,714.595 4663.61,713.937 4662.82,713.144C4662.53,712.859 4662.65,711.757 4662.12,711.757L4659.84,710.578Z" style="fill:white;"/>
                </g>
                <g transform="matrix(1.33833,0,0,1.33833,-1579.01,-263.414)">
                    <path d="M4676.53,733.878C4676.75,734.098 4677.05,733.952 4677.39,734.119C4677.47,734.159 4677.79,734.176 4677.84,734.176C4677.87,734.176 4678.02,734.156 4678.04,734.176C4678.08,734.219 4678.2,734.19 4678.24,734.233C4678.37,734.367 4678.51,734.443 4678.64,734.574C4678.8,734.732 4678.89,734.911 4679.04,735.057C4679.1,735.123 4679.08,735.275 4679.15,735.341C4679.17,735.365 4679.13,735.459 4679.15,735.483C4679.18,735.509 4679.29,736.057 4679.4,735.938C4679.45,735.895 4679.42,735.781 4679.46,735.739C4679.58,735.619 4679.66,734.997 4679.55,734.773C4679.49,734.652 4679.56,734.392 4679.46,734.29C4679.33,734.162 4679.28,733.963 4679.15,733.835C4679.12,733.802 4679.01,733.84 4678.98,733.807C4678.87,733.699 4678.47,733.75 4678.27,733.75C4677.48,733.75 4677.38,733.664 4676.65,733.664L4676.53,733.878Z" style="fill:white;"/>
                </g>
                <g transform="matrix(1.33833,0,0,1.33833,-1574.24,-267.775)">
                    <path d="M4645.7,704.097C4645.77,704.195 4645.98,704.16 4646.08,704.26C4646.2,704.384 4646.45,704.376 4646.59,704.515C4646.68,704.61 4646.76,704.7 4646.84,704.787C4646.87,704.814 4646.94,704.833 4646.95,704.86C4647.05,705.051 4647.26,705.243 4647.35,705.424C4647.38,705.484 4647.4,705.613 4647.44,705.66C4647.47,705.682 4647.46,705.751 4647.46,705.751C4647.46,705.751 4647.44,705.557 4647.44,705.46C4647.44,705.316 4647.48,705.01 4647.39,704.915C4647.27,704.799 4647.26,704.51 4647.11,704.369C4646.98,704.231 4646.87,704.108 4646.75,703.987C4646.67,703.905 4646.48,703.959 4646.35,703.896C4646.29,703.866 4646.23,703.824 4646.17,703.824L4645.7,704.097Z" style="fill:white;"/>
                </g>
                <g transform="matrix(1.33833,0,0,1.33833,-1570.12,-261.293)">
                    <path d="M4663.73,698.517L4664.19,705.021C4664.27,706.139 4664.73,707.191 4665.48,707.984C4666.23,708.777 4667.22,709.26 4668.28,709.344L4674.44,709.832L4668.28,710.32C4667.22,710.404 4666.23,710.886 4665.48,711.679C4664.73,712.473 4664.27,713.524 4664.19,714.643L4663.73,721.147L4663.27,714.643C4663.19,713.524 4662.73,712.473 4661.98,711.679C4661.23,710.886 4660.23,710.404 4659.17,710.32L4653.02,709.832L4659.17,709.344C4660.23,709.26 4661.23,708.777 4661.98,707.984C4662.73,707.191 4663.19,706.139 4663.27,705.021L4663.73,698.517Z" style="fill:white;stroke:black;stroke-width:1.49px;stroke-linecap:square;"/>
                </g>
            </g>
        </g>
    </g>
</svg>
