<?xml version="1.0" encoding="UTF-8" standalone="no"?>
<!DOCTYPE svg PUBLIC "-//W3C//DTD SVG 1.1//EN" "http://www.w3.org/Graphics/SVG/1.1/DTD/svg11.dtd">
<svg width="100%" height="100%" viewBox="0 0 113 78" version="1.1" xmlns="http://www.w3.org/2000/svg" xmlns:xlink="http://www.w3.org/1999/xlink" xml:space="preserve" xmlns:serif="http://www.serif.com/" style="fill-rule:evenodd;clip-rule:evenodd;stroke-linejoin:round;stroke-miterlimit:2;">
    <g transform="matrix(1,0,0,1,-4573.7,-263.605)">
        <g transform="matrix(1,0,0,1,0,18)">
            <g transform="matrix(3.27108e-17,0.534208,-0.202029,1.23707e-17,4704.56,-2210.5)">
                <path d="M4703.91,279.083C4706.55,287.492 4706.11,299.985 4702.93,306.963C4699.75,313.942 4695.02,312.781 4692.38,304.373C4691.53,301.645 4689.87,299.87 4687.89,297.998C4683.3,293.65 4677.12,291.215 4670.48,291.215C4663.85,291.215 4657.66,293.65 4653.07,297.998C4651.09,299.87 4649.44,301.645 4648.58,304.373C4645.94,312.781 4641.22,313.942 4638.03,306.963C4634.86,299.985 4634.42,287.492 4637.06,279.083C4639.24,272.136 4642.98,265.486 4648.02,260.715C4653.95,255.103 4661.91,251.617 4670.48,251.617C4679.05,251.617 4687.01,255.103 4692.94,260.715C4697.98,265.486 4701.73,272.136 4703.91,279.083Z"/>
            </g>
        </g>
        <g transform="matrix(1,0,0,1,0,18)">
            <g transform="matrix(5.55785e-17,0.907665,-0.493823,3.0238e-17,4799.53,-3954.73)">
                <path d="M4701.96,287.68C4703.18,291.553 4702.45,296.51 4700.35,298.744C4698.24,300.978 4695.54,299.648 4694.33,295.776C4693.18,292.112 4691.06,289.073 4688.4,286.558C4683.67,282.085 4677.31,279.516 4670.48,279.516C4663.65,279.516 4657.29,282.085 4652.56,286.558C4649.9,289.073 4647.78,292.112 4646.63,295.776C4645.42,299.648 4642.72,300.978 4640.61,298.744C4638.51,296.51 4637.78,291.553 4639,287.68C4643.35,273.82 4655.95,263.316 4670.48,263.316C4685.01,263.316 4697.61,273.82 4701.96,287.68Z"/>
            </g>
        </g>
        <g transform="matrix(1,0,0,1,0,18)">
            <g transform="matrix(7.72476e-17,1.26155,-0.816881,5.00196e-17,4903.8,-5607.54)">
                <path d="M4701,289.592C4701.76,292.024 4701.1,294.955 4699.53,296.134C4697.95,297.313 4696.06,296.296 4695.29,293.864C4691.91,283.095 4681.77,276.313 4670.48,276.313C4659.19,276.313 4649.05,283.095 4645.67,293.864C4644.91,296.296 4643.01,297.313 4641.43,296.134C4639.86,294.955 4639.2,292.024 4639.96,289.592C4644.17,276.184 4656.43,266.519 4670.48,266.519C4684.53,266.519 4696.79,276.184 4701,289.592Z"/>
            </g>
        </g>
        <g transform="matrix(1,0,0,1,0,18)">
            <g transform="matrix(1,0,0,1,0,-18)">
                <path d="M4599.48,285.297L4626.86,271.416C4629.33,271.416 4631.34,285.335 4631.34,302.506C4631.34,319.676 4629.33,333.596 4626.86,333.596L4599.48,319.715L4573.7,319.715L4573.7,285.297L4599.48,285.297Z"/>
            </g>
        </g>
    </g>
</svg>
