<?xml version="1.0" encoding="UTF-8" standalone="no"?>
<!DOCTYPE svg PUBLIC "-//W3C//DTD SVG 1.1//EN" "http://www.w3.org/Graphics/SVG/1.1/DTD/svg11.dtd">
<svg width="100%" height="100%" viewBox="0 0 494 494" version="1.1" xmlns="http://www.w3.org/2000/svg" xmlns:xlink="http://www.w3.org/1999/xlink" xml:space="preserve" xmlns:serif="http://www.serif.com/" style="fill-rule:evenodd;clip-rule:evenodd;stroke-linejoin:round;stroke-miterlimit:2;">
    <g transform="matrix(1,0,0,1,-3202,-248)">
        <g transform="matrix(1,0,0,1,-0.0939668,1.49123)">
            <g transform="matrix(0.796774,0,0,0.796774,701.02,89.5443)">
                <circle cx="3449" cy="507" r="310" style="fill:white;fill-opacity:0.15;"/>
            </g>
        </g>
        <g transform="matrix(1,0,0,1,-0.0939668,1.49123)">
            <g transform="matrix(0.773049,0,0,0.773049,782.849,101.573)">
                <circle cx="3449" cy="507" r="310" style="fill:white;fill-opacity:0.15;"/>
            </g>
        </g>
        <g transform="matrix(1,0,0,1,-0.0939668,1.49123)">
            <g transform="matrix(0.749043,0,0,0.749043,865.644,113.744)">
                <circle cx="3449" cy="507" r="310" style="fill:white;fill-opacity:0.15;"/>
            </g>
        </g>
        <g transform="matrix(1,0,0,1,-0.0939668,1.49123)">
            <g transform="matrix(0.722534,0,0,0.722534,957.076,127.184)">
                <circle cx="3449" cy="507" r="310" style="fill:white;fill-opacity:0.15;"/>
            </g>
        </g>
        <g transform="matrix(1,0,0,1,-0.0939668,1.49123)">
            <g id="planete.svg" transform="matrix(0.484293,0,0,0.484293,3449.1,493.509)">
                <g transform="matrix(1,0,0,1,-454.5,-462.5)">
                    <g transform="matrix(1,0,0,1,-510.98,-112.376)">
                        <g>
                            <g>
                                <clipPath id="_clip1">
                                    <circle cx="966.568" cy="584.528" r="449.026"/>
                                </clipPath>
                                <g clip-path="url(#_clip1)">
                                    <g transform="matrix(4.06841,0,0,4.06841,-6256.53,-121.377)">
                                        <circle cx="1773.8" cy="168.906" r="110.369" style="fill:rgb(25,118,181);"/>
                                    </g>
                                    <g transform="matrix(4.06841,0,0,4.06841,-6249.96,-102.651)">
                                        <circle cx="1773.8" cy="168.906" r="110.369" style="fill:rgb(25,118,181);"/>
                                    </g>
                                    <g transform="matrix(0.617568,0.567096,-0.404102,0.440068,-860.243,-1763.78)">
                                        <circle cx="3508.12" cy="250.597" r="133.821" style="fill:rgb(111,204,80);"/>
                                    </g>
                                    <g transform="matrix(0.264175,-0.24861,0.685328,0.728234,172.89,970.844)">
                                        <circle cx="3508.12" cy="250.597" r="133.821" style="fill:rgb(111,204,80);"/>
                                    </g>
                                    <g transform="matrix(0.34334,0.21723,-0.361811,0.571857,-488.34,-588.312)">
                                        <circle cx="3508.12" cy="250.597" r="133.821" style="fill:rgb(111,204,80);"/>
                                    </g>
                                    <g transform="matrix(0.228892,0.0805763,-0.154535,0.438985,-204.809,14.6552)">
                                        <circle cx="3508.12" cy="250.597" r="133.821" style="fill:rgb(111,204,80);"/>
                                    </g>
                                    <g transform="matrix(0.423194,0.0238113,-0.0304963,0.542005,-801.824,365.17)">
                                        <circle cx="3508.12" cy="250.597" r="133.821" style="fill:rgb(111,204,80);"/>
                                    </g>
                                    <g transform="matrix(0.176054,-0.0176535,0.0295431,0.294625,-51.6771,612.211)">
                                        <circle cx="3508.12" cy="250.597" r="133.821" style="fill:rgb(111,204,80);"/>
                                    </g>
                                    <g transform="matrix(0.335073,0.176384,-0.167317,0.31785,-333.324,28.019)">
                                        <circle cx="3508.12" cy="250.597" r="133.821" style="fill:rgb(111,204,80);"/>
                                    </g>
                                    <g transform="matrix(0.277693,0.146178,-0.139731,0.265445,-141.005,153.552)">
                                        <circle cx="3508.12" cy="250.597" r="133.821" style="fill:rgb(206,206,206);"/>
                                    </g>
                                    <g transform="matrix(0.706846,0,0,0.706846,-1467.7,265.616)">
                                        <circle cx="3508.12" cy="250.597" r="133.821" style="fill:rgb(111,204,80);"/>
                                    </g>
                                    <g transform="matrix(0.358189,-0.0415746,0.0321049,0.276602,-347.691,355.548)">
                                        <circle cx="3508.12" cy="250.597" r="133.821" style="fill:rgb(111,204,80);"/>
                                    </g>
                                    <g transform="matrix(0.295427,-0.0342898,0.0264794,0.228135,-126.104,335.578)">
                                        <circle cx="3508.12" cy="250.597" r="133.821" style="fill:rgb(206,206,206);"/>
                                    </g>
                                    <g transform="matrix(0.086586,-0.0100499,0.00776081,0.0668638,689.137,319.517)">
                                        <circle cx="3508.12" cy="250.597" r="133.821" style="fill:rgb(111,204,80);"/>
                                    </g>
                                    <g transform="matrix(0.548747,0,0,0.548747,-996.529,375.009)">
                                        <circle cx="3508.12" cy="250.597" r="133.821" style="fill:rgb(111,204,80);"/>
                                    </g>
                                    <g transform="matrix(0.231501,-0.155646,0.306175,0.45539,-266.496,1261.06)">
                                        <circle cx="3508.12" cy="250.597" r="133.821" style="fill:rgb(111,204,80);"/>
                                    </g>
                                    <g transform="matrix(0.548747,0,0,0.548747,-877.08,387.108)">
                                        <circle cx="3508.12" cy="250.597" r="133.821" style="fill:rgb(111,204,80);"/>
                                    </g>
                                    <g transform="matrix(0.356948,0.416786,-0.272561,0.233429,139.17,-1136.45)">
                                        <circle cx="3508.12" cy="250.597" r="133.821" style="fill:rgb(111,204,80);"/>
                                    </g>
                                    <g transform="matrix(0.82312,0,0,0.82312,-1848.91,467.023)">
                                        <circle cx="3508.12" cy="250.597" r="133.821" style="fill:rgb(111,204,80);"/>
                                    </g>
                                    <g transform="matrix(0.27693,0.358116,-0.407041,0.314763,251.921,-556.108)">
                                        <circle cx="3508.12" cy="250.597" r="133.821" style="fill:rgb(111,204,80);"/>
                                    </g>
                                    <g transform="matrix(0.299923,0.0654024,-0.109628,0.502732,351.661,301.044)">
                                        <circle cx="3508.12" cy="250.597" r="133.821" style="fill:rgb(111,204,80);"/>
                                    </g>
                                    <g transform="matrix(0.304425,0.0394552,-0.0500516,0.386184,219.624,330.612)">
                                        <circle cx="3508.12" cy="250.597" r="133.821" style="fill:rgb(111,204,80);"/>
                                    </g>
                                    <g transform="matrix(1,0,0,0.595026,-2547.55,4.78147)">
                                        <path d="M3511.97,180.823C3585.83,180.823 3638.7,184.157 3621.38,252.036C3611.53,290.632 3587.83,278.138 3513.97,278.138C3440.11,278.138 3379.43,342.008 3379.43,268.15C3379.43,194.292 3438.11,180.823 3511.97,180.823Z" style="fill:rgb(80,204,198);"/>
                                    </g>
                                    <g transform="matrix(1,0,0,0.388993,-2535.71,887.106)">
                                        <circle cx="3508.12" cy="250.597" r="133.821" style="fill:rgb(80,204,198);"/>
                                    </g>
                                    <g transform="matrix(0.286228,0,0,0.128594,-127.23,883.097)">
                                        <circle cx="3508.12" cy="250.597" r="133.821" style="fill:rgb(80,204,198);"/>
                                    </g>
                                    <g transform="matrix(0.118826,0,0,0.0476471,498.341,874.071)">
                                        <circle cx="3508.12" cy="250.597" r="133.821" style="fill:rgb(80,204,198);"/>
                                    </g>
                                    <g transform="matrix(0.414771,0,0,0.215253,-439.56,128.864)">
                                        <circle cx="3508.12" cy="250.597" r="133.821" style="fill:rgb(80,204,198);"/>
                                    </g>
                                    <g transform="matrix(1.44575,0,0,1.44575,-4456.86,-177.532)">
                                        <circle cx="3785.74" cy="429.037" r="57.746" style="fill:rgb(206,206,206);"/>
                                    </g>
                                    <g transform="matrix(0.703269,0,0,0.703269,-1724.92,183.897)">
                                        <circle cx="3785.74" cy="429.037" r="57.746" style="fill:rgb(206,206,206);"/>
                                    </g>
                                    <g transform="matrix(0.703269,0,0,0.703269,-1614.4,224.509)">
                                        <circle cx="3785.74" cy="429.037" r="57.746" style="fill:rgb(206,206,206);"/>
                                    </g>
                                    <g transform="matrix(1.09821,0,0,1.09821,-3138.73,184.334)">
                                        <circle cx="3785.74" cy="429.037" r="57.746" style="fill:rgb(206,206,206);"/>
                                    </g>
                                    <g transform="matrix(0.438678,0,0,0.438678,-603.837,530.714)">
                                        <circle cx="3785.74" cy="429.037" r="57.746" style="fill:rgb(206,206,206);"/>
                                    </g>
                                    <g transform="matrix(0.143216,0,0,0.143216,486.546,344.754)">
                                        <circle cx="3785.74" cy="429.037" r="57.746" style="fill:rgb(100,100,100);"/>
                                    </g>
                                    <g transform="matrix(0.0883451,0,0,0.0883451,694.274,368.296)">
                                        <circle cx="3785.74" cy="429.037" r="57.746" style="fill:rgb(155,155,155);"/>
                                    </g>
                                    <g transform="matrix(0.457899,0,0,0.457899,-693.068,249.833)">
                                        <circle cx="3785.74" cy="429.037" r="57.746" style="fill:rgb(100,100,100);"/>
                                    </g>
                                    <g transform="matrix(0.289655,0,0,0.289655,-56.141,322.015)">
                                        <circle cx="3785.74" cy="429.037" r="57.746" style="fill:rgb(155,155,155);"/>
                                    </g>
                                    <g transform="matrix(1.84818,-0.273903,0.273903,1.84818,-5928.14,835.017)">
                                        <ellipse cx="3668.58" cy="236.741" rx="14.422" ry="6.849" style="fill:rgb(100,100,100);"/>
                                    </g>
                                    <g transform="matrix(1,0,0,1,-2750.11,0)">
                                        <path d="M3643.93,236.88L3640.31,271.499L3693.76,264.11L3672.53,231.748L3643.93,236.88Z" style="fill:rgb(100,100,100);"/>
                                    </g>
                                    <g transform="matrix(0.989196,-0.1466,0.1466,0.989196,-2755.54,538.112)">
                                        <ellipse cx="3668.58" cy="236.741" rx="14.422" ry="6.849" style="fill:rgb(155,155,155);"/>
                                    </g>
                                    <g transform="matrix(-0.153702,0.311077,-0.896535,-0.442973,1992.31,-15.8353)">
                                        <path d="M3539.61,737.33C3539.61,733.148 3529.83,729.753 3517.78,729.753C3505.72,729.753 3495.94,733.148 3495.94,737.33L3495.94,752.303C3495.94,756.484 3505.72,759.879 3517.78,759.879C3529.83,759.879 3539.61,756.484 3539.61,752.303L3539.61,737.33Z" style="fill:rgb(122,118,118);"/>
                                    </g>
                                    <g transform="matrix(-0.153702,0.311077,-0.896535,-0.442973,2019.09,-20.592)">
                                        <path d="M3539.61,737.33C3539.61,733.148 3529.83,729.753 3517.78,729.753C3505.72,729.753 3495.94,733.148 3495.94,737.33L3495.94,752.303C3495.94,756.484 3505.72,759.879 3517.78,759.879C3529.83,759.879 3539.61,756.484 3539.61,752.303L3539.61,737.33Z" style="fill:rgb(122,118,118);"/>
                                    </g>
                                    <g transform="matrix(0.0229424,-0.346218,0.997812,0.0661208,208.642,1491.43)">
                                        <path d="M3539.61,737.33C3539.61,733.148 3529.83,729.753 3517.78,729.753C3505.72,729.753 3495.94,733.148 3495.94,737.33L3495.94,752.303C3495.94,756.484 3505.72,759.879 3517.78,759.879C3529.83,759.879 3539.61,756.484 3539.61,752.303L3539.61,737.33Z" style="fill:rgb(36,156,237);"/>
                                    </g>
                                    <g transform="matrix(-0.049708,-0.343398,0.989685,-0.14326,361.678,1515.95)">
                                        <path d="M3539.61,737.33C3539.61,733.148 3529.83,729.753 3517.78,729.753C3505.72,729.753 3495.94,733.148 3495.94,737.33L3495.94,752.303C3495.94,756.484 3505.72,759.879 3517.78,759.879C3529.83,759.879 3539.61,756.484 3539.61,752.303L3539.61,737.33Z" style="fill:rgb(36,156,237);"/>
                                    </g>
                                    <g transform="matrix(-0.241515,-0.249126,0.717988,-0.696055,1078.81,1709.49)">
                                        <path d="M3539.61,737.33C3539.61,733.148 3529.83,729.753 3517.78,729.753C3505.72,729.753 3495.94,733.148 3495.94,737.33L3495.94,752.303C3495.94,756.484 3505.72,759.879 3517.78,759.879C3529.83,759.879 3539.61,756.484 3539.61,752.303L3539.61,737.33Z" style="fill:rgb(36,156,237);"/>
                                    </g>
                                    <g transform="matrix(-0.27036,-0.217483,0.626792,-0.779186,1296.07,1738.33)">
                                        <path d="M3539.61,737.33C3539.61,733.148 3529.83,729.753 3517.78,729.753C3505.72,729.753 3495.94,733.148 3495.94,737.33L3495.94,752.303C3495.94,756.484 3505.72,759.879 3517.78,759.879C3529.83,759.879 3539.61,756.484 3539.61,752.303L3539.61,737.33Z" style="fill:rgb(36,156,237);"/>
                                    </g>
                                    <g transform="matrix(-0.328871,-0.110623,0.318818,-0.947816,1549.75,1547.59)">
                                        <path d="M3539.61,737.33C3539.61,733.148 3529.83,729.753 3517.78,729.753C3505.72,729.753 3495.94,733.148 3495.94,737.33L3495.94,752.303C3495.94,756.484 3505.72,759.879 3517.78,759.879C3529.83,759.879 3539.61,756.484 3539.61,752.303L3539.61,737.33Z" style="fill:rgb(36,156,237);"/>
                                    </g>
                                    <g transform="matrix(-0.336667,0.0839573,-0.241968,-0.970284,2014.79,1136)">
                                        <path d="M3539.61,737.33C3539.61,733.148 3529.83,729.753 3517.78,729.753C3505.72,729.753 3495.94,733.148 3495.94,737.33L3495.94,752.303C3495.94,756.484 3505.72,759.879 3517.78,759.879C3529.83,759.879 3539.61,756.484 3539.61,752.303L3539.61,737.33Z" style="fill:rgb(36,156,237);"/>
                                    </g>
                                    <g transform="matrix(-0.333497,0.0957756,-0.276028,-0.961149,2057.7,1094.2)">
                                        <path d="M3539.61,737.33C3539.61,733.148 3529.83,729.753 3517.78,729.753C3505.72,729.753 3495.94,733.148 3495.94,737.33L3495.94,752.303C3495.94,756.484 3505.72,759.879 3517.78,759.879C3529.83,759.879 3539.61,756.484 3539.61,752.303L3539.61,737.33Z" style="fill:rgb(36,156,237);"/>
                                    </g>
                                    <g transform="matrix(-0.00548534,0.346934,-0.999875,-0.0158089,1740.23,-349.804)">
                                        <path d="M3539.61,737.33C3539.61,733.148 3529.83,729.753 3517.78,729.753C3505.72,729.753 3495.94,733.148 3495.94,737.33L3495.94,752.303C3495.94,756.484 3505.72,759.879 3517.78,759.879C3529.83,759.879 3539.61,756.484 3539.61,752.303L3539.61,737.33Z" style="fill:rgb(36,156,237);"/>
                                    </g>
                                    <g transform="matrix(-0.00548534,0.346934,-0.999875,-0.0158089,1770.36,-323.531)">
                                        <path d="M3539.61,737.33C3539.61,733.148 3529.83,729.753 3517.78,729.753C3505.72,729.753 3495.94,733.148 3495.94,737.33L3495.94,752.303C3495.94,756.484 3505.72,759.879 3517.78,759.879C3529.83,759.879 3539.61,756.484 3539.61,752.303L3539.61,737.33Z" style="fill:rgb(36,156,237);"/>
                                    </g>
                                    <g transform="matrix(0.27658,0.209516,-0.603833,0.797111,735.354,-553.915)">
                                        <path d="M3539.61,737.33C3539.61,733.148 3529.83,729.753 3517.78,729.753C3505.72,729.753 3495.94,733.148 3495.94,737.33L3495.94,752.303C3495.94,756.484 3505.72,759.879 3517.78,759.879C3529.83,759.879 3539.61,756.484 3539.61,752.303L3539.61,737.33Z" style="fill:rgb(36,156,237);"/>
                                    </g>
                                    <g transform="matrix(0.293944,0.184364,-0.531343,0.847157,608.182,-549.52)">
                                        <path d="M3539.61,737.33C3539.61,733.148 3529.83,729.753 3517.78,729.753C3505.72,729.753 3495.94,733.148 3495.94,737.33L3495.94,752.303C3495.94,756.484 3505.72,759.879 3517.78,759.879C3529.83,759.879 3539.61,756.484 3539.61,752.303L3539.61,737.33Z" style="fill:rgb(36,156,237);"/>
                                    </g>
                                    <g transform="matrix(0.34327,-0.0505859,0.14579,0.989316,25.198,-60.9766)">
                                        <path d="M3539.61,737.33C3539.61,733.148 3529.83,729.753 3517.78,729.753C3505.72,729.753 3495.94,733.148 3495.94,737.33L3495.94,752.303C3495.94,756.484 3505.72,759.879 3517.78,759.879C3529.83,759.879 3539.61,756.484 3539.61,752.303L3539.61,737.33Z" style="fill:rgb(36,156,237);"/>
                                    </g>
                                    <g transform="matrix(0.34327,-0.0505859,0.14579,0.989316,-48.9108,-90.9445)">
                                        <path d="M3539.61,737.33C3539.61,733.148 3529.83,729.753 3517.78,729.753C3505.72,729.753 3495.94,733.148 3495.94,737.33L3495.94,752.303C3495.94,756.484 3505.72,759.879 3517.78,759.879C3529.83,759.879 3539.61,756.484 3539.61,752.303L3539.61,737.33Z" style="fill:rgb(36,156,237);"/>
                                    </g>
                                    <g transform="matrix(0.314801,-0.145923,0.420554,0.907268,-521.23,470.474)">
                                        <path d="M3539.61,737.33C3539.61,733.148 3529.83,729.753 3517.78,729.753C3505.72,729.753 3495.94,733.148 3495.94,737.33L3495.94,752.303C3495.94,756.484 3505.72,759.879 3517.78,759.879C3529.83,759.879 3539.61,756.484 3539.61,752.303L3539.61,737.33Z" style="fill:rgb(36,156,237);"/>
                                    </g>
                                    <g transform="matrix(0.186829,-0.292384,0.84266,0.538446,-539.384,1536.35)">
                                        <path d="M3539.61,737.33C3539.61,733.148 3529.83,729.753 3517.78,729.753C3505.72,729.753 3495.94,733.148 3495.94,737.33L3495.94,752.303C3495.94,756.484 3505.72,759.879 3517.78,759.879C3529.83,759.879 3539.61,756.484 3539.61,752.303L3539.61,737.33Z" style="fill:rgb(36,156,237);"/>
                                    </g>
                                    <g transform="matrix(-0.218039,-0.269912,0.777894,-0.628395,1385.79,2314.77)">
                                        <path d="M3539.61,737.33C3539.61,733.148 3529.83,729.753 3517.78,729.753C3505.72,729.753 3495.94,733.148 3495.94,737.33L3495.94,752.303C3495.94,756.484 3505.72,759.879 3517.78,759.879C3529.83,759.879 3539.61,756.484 3539.61,752.303L3539.61,737.33Z" style="fill:rgb(36,156,237);"/>
                                    </g>
                                    <g transform="matrix(-0.328035,0.113077,-0.325892,-0.945407,2056.32,1060.84)">
                                        <path d="M3539.61,737.33C3539.61,733.148 3529.83,729.753 3517.78,729.753C3505.72,729.753 3495.94,733.148 3495.94,737.33L3495.94,752.303C3495.94,756.484 3505.72,759.879 3517.78,759.879C3529.83,759.879 3539.61,756.484 3539.61,752.303L3539.61,737.33Z" style="fill:rgb(36,156,237);"/>
                                    </g>
                                </g>
                            </g>
                        </g>
                    </g>
                </g>
            </g>
        </g>
    </g>
</svg>
