<?xml version="1.0" encoding="UTF-8" standalone="no"?>
<!DOCTYPE svg PUBLIC "-//W3C//DTD SVG 1.1//EN" "http://www.w3.org/Graphics/SVG/1.1/DTD/svg11.dtd">
<svg width="100%" height="100%" viewBox="0 0 494 494" version="1.1" xmlns="http://www.w3.org/2000/svg" xmlns:xlink="http://www.w3.org/1999/xlink" xml:space="preserve" xmlns:serif="http://www.serif.com/" style="fill-rule:evenodd;clip-rule:evenodd;stroke-linejoin:round;stroke-miterlimit:2;">
    <g transform="matrix(1,0,0,1,-3202,-267)">
        <g transform="matrix(1,0,0,1,-0.0939668,20.4912)">
            <g transform="matrix(0.796774,0,0,0.796774,701.02,89.5443)">
                <circle cx="3449" cy="507" r="310" style="fill:white;fill-opacity:0.1;"/>
            </g>
        </g>
        <g transform="matrix(1,0,0,1,-0.0939668,20.4912)">
            <g transform="matrix(0.773049,0,0,0.773049,782.849,101.573)">
                <circle cx="3449" cy="507" r="310" style="fill:white;fill-opacity:0.15;"/>
            </g>
        </g>
        <g transform="matrix(1,0,0,1,-0.0939668,20.4912)">
            <g transform="matrix(0.749043,0,0,0.749043,865.644,113.744)">
                <circle cx="3449" cy="507" r="310" style="fill:white;fill-opacity:0.15;"/>
            </g>
        </g>
        <g transform="matrix(1,0,0,1,-0.0939668,20.4912)">
            <g transform="matrix(0.722534,0,0,0.722534,957.076,127.184)">
                <circle cx="3449" cy="507" r="310" style="fill:white;fill-opacity:0.15;"/>
            </g>
        </g>
        <g transform="matrix(1,0,0,1,-0.0939668,20.4912)">
            <g transform="matrix(0.474916,0,0,0.474916,2990.06,215.907)">
                <g transform="matrix(4.06841,0,0,4.06841,-6249.96,-102.651)">
                    <circle cx="1773.8" cy="168.906" r="110.369" style="fill:rgb(25,118,181);"/>
                </g>
                <g transform="matrix(2.10563,0,0,2.10563,-6295.77,-497.768)">
                    <path d="M3311.1,351.391C3322,359.655 3321.12,381.351 3308.83,400.782C3298.82,416.607 3284.2,426.233 3272.57,425.85C3272.07,428.804 3271.29,431.874 3270.2,434.969C3264.78,450.367 3253.86,460.574 3245.83,457.747C3245.03,457.464 3244.28,457.059 3243.59,456.546C3255.21,415.003 3279.1,378.562 3311.1,351.391ZM3646.68,433.922C3646.13,438.554 3644.26,442.548 3641,445.341C3631.44,453.529 3613.51,448.307 3600.99,433.688C3600.81,433.474 3600.63,433.26 3600.45,433.045C3585.94,447.239 3557.7,443.331 3536.55,423.91C3514.89,404.018 3508.81,375.337 3522.99,359.901C3529.97,352.299 3540.56,349.318 3552.11,350.626C3547.04,339.796 3545.59,330.674 3548.73,325.492C3592.83,348.892 3627.76,387.316 3646.68,433.922ZM3654.6,570.772C3649.44,577.7 3642.85,581.467 3636.65,580.115C3626.13,577.821 3620.71,561.642 3624.56,544.008C3628.4,526.374 3640.06,513.92 3650.58,516.214C3655.68,517.325 3659.58,521.692 3661.81,527.902C3660.85,542.649 3658.4,556.989 3654.6,570.772ZM3261.22,615.079C3260.77,608.801 3262.33,603.751 3266.08,601.235C3274.2,595.776 3289.51,604.312 3300.25,620.285C3310.99,636.259 3313.11,653.659 3304.99,659.119C3301.91,661.188 3297.8,661.247 3293.3,659.651C3280.79,646.287 3269.98,631.315 3261.22,615.079ZM3423.39,351.328C3435.95,349.87 3447.06,356.562 3448.19,366.265C3449.32,375.967 3440.03,385.028 3427.47,386.486C3414.9,387.944 3403.79,381.251 3402.66,371.549C3401.53,361.847 3410.82,352.786 3423.39,351.328ZM3312.54,479.553C3327.38,480.389 3338.57,496.502 3337.5,515.513C3336.43,534.525 3323.51,549.282 3308.66,548.446C3293.82,547.611 3282.64,531.498 3283.71,512.487C3284.78,493.475 3297.7,478.718 3312.54,479.553ZM3260.38,514.075C3266.55,513.456 3272.41,521.343 3273.44,531.677C3274.48,542.012 3270.31,550.905 3264.13,551.524C3257.96,552.143 3252.1,544.256 3251.07,533.921C3250.03,523.587 3254.2,514.694 3260.38,514.075ZM3380.64,561.199C3392.39,567.386 3397.17,581.461 3391.3,592.61C3385.43,603.759 3371.12,607.787 3359.37,601.6C3347.62,595.414 3342.84,581.339 3348.71,570.19C3354.58,559.041 3368.88,555.012 3380.64,561.199ZM3598.68,480.563C3609.36,481.947 3616.6,494.068 3614.85,507.614C3613.09,521.16 3603,531.034 3592.32,529.65C3581.64,528.266 3574.4,516.145 3576.15,502.599C3577.91,489.053 3588,479.179 3598.68,480.563ZM3461.93,375.106C3464.97,374.754 3467.66,376.372 3467.93,378.717C3468.2,381.062 3465.96,383.253 3462.92,383.605C3459.88,383.958 3457.2,382.34 3456.92,379.995C3456.65,377.649 3458.9,375.459 3461.93,375.106ZM3457.28,502.657C3450.88,510.02 3441.45,514.679 3430.94,514.679C3411.69,514.679 3396.07,499.052 3396.07,479.804C3396.07,462.346 3408.92,447.867 3425.68,445.325C3426.39,421.151 3446.23,401.744 3470.58,401.744C3495.37,401.744 3515.5,421.874 3515.5,446.667C3515.5,451.885 3514.61,456.896 3512.97,461.556C3518.9,467.81 3522.55,476.258 3522.55,485.55C3522.55,495.941 3517.99,505.276 3510.77,511.667C3525.65,520.895 3535.57,537.377 3535.57,556.157C3535.57,563.376 3534.1,570.255 3531.45,576.514C3538.13,577.618 3544.19,580.937 3548.41,586.394C3558.13,598.955 3554.42,618.117 3540.14,629.158C3525.87,640.198 3506.39,638.964 3496.68,626.402C3492.53,621.038 3490.83,614.47 3491.35,607.845C3488.71,608.256 3486.01,608.469 3483.26,608.469C3454.38,608.469 3430.94,585.029 3430.94,556.157C3430.94,535.049 3443.47,516.845 3461.49,508.58C3459.89,506.763 3458.48,504.779 3457.28,502.657Z" style="fill:rgb(111,204,80);"/>
                </g>
                <g transform="matrix(2.10563,0,0,2.10563,-6295.77,-497.768)">
                    <path d="M3450.09,479.264C3446.55,483.569 3441.19,486.316 3435.18,486.316C3424.54,486.316 3415.9,477.674 3415.9,467.03C3415.9,457.115 3423.39,448.938 3433.02,447.863C3433.01,447.465 3433.01,447.067 3433.01,446.666C3433.01,424.784 3450.77,407.017 3472.66,407.017C3494.54,407.017 3512.3,424.784 3512.3,446.666C3512.3,456.946 3508.38,466.317 3501.96,473.365C3505.07,476.789 3506.96,481.334 3506.96,486.317C3506.96,496.962 3498.32,505.604 3487.67,505.604C3477.03,505.604 3468.39,496.962 3468.39,486.317C3468.39,486.24 3468.39,486.164 3468.39,486.088C3461.64,485.364 3455.39,482.944 3450.09,479.264ZM3479.88,577.214C3477.92,577.616 3475.89,577.827 3473.81,577.827C3457.19,577.827 3443.69,564.331 3443.69,547.709C3443.69,531.086 3457.19,517.591 3473.81,517.591C3490.43,517.591 3503.93,531.086 3503.93,547.709C3503.93,555.012 3501.32,561.712 3496.99,566.928C3501.09,568.849 3503.93,573.009 3503.93,577.826C3503.93,584.466 3498.53,589.857 3491.89,589.857C3485.25,589.857 3479.86,584.466 3479.86,577.826C3479.86,577.621 3479.87,577.417 3479.88,577.214ZM3377.9,567.586C3387.64,572.713 3391.57,584.435 3386.67,593.746C3381.77,603.057 3369.88,606.453 3360.14,601.326C3350.4,596.198 3346.47,584.476 3351.37,575.165C3356.28,565.855 3368.16,562.458 3377.9,567.586ZM3423.74,351.293C3434.11,350.09 3443.27,355.61 3444.2,363.612C3445.13,371.614 3437.47,379.088 3427.11,380.29C3416.75,381.493 3407.58,375.973 3406.65,367.971C3405.72,359.969 3413.38,352.495 3423.74,351.293Z" style="fill:rgb(206,206,206);"/>
                </g>
                <g transform="matrix(2.10563,0,0,2.10563,-6295.77,-497.768)">
                    <path d="M3500.93,307.129C3500.69,308.005 3500.36,308.925 3499.94,309.891C3498.7,312.795 3496.99,314.675 3494.48,315.871C3497.09,317.994 3498.6,320.514 3498.6,323.216C3498.6,330.766 3486.79,336.896 3472.24,336.896C3457.7,336.896 3445.88,330.766 3445.88,323.216C3445.88,321.085 3446.82,319.067 3448.5,317.268C3413.62,317.414 3385.04,335.231 3385.04,314.445C3385.04,313.02 3385.17,311.676 3385.42,310.406C3405.5,304.132 3426.86,300.75 3449,300.75C3466.91,300.75 3484.31,302.963 3500.93,307.129ZM3418.76,725.117C3400.45,720.776 3388.22,712.936 3388.22,703.994C3388.22,690.35 3416.7,679.272 3451.78,679.272C3486.85,679.272 3515.33,690.35 3515.33,703.994C3515.33,711.365 3507.02,717.986 3493.85,722.517C3479.39,725.618 3464.38,727.25 3449,727.25C3438.74,727.25 3428.64,726.523 3418.76,725.117ZM3424.61,654.151C3428.77,654.151 3432.16,655.508 3432.16,657.179C3432.16,658.851 3428.77,660.207 3424.61,660.207C3420.44,660.207 3417.05,658.851 3417.05,657.179C3417.05,655.508 3420.44,654.151 3424.61,654.151ZM3406.41,662.927C3416.45,662.927 3424.6,666.589 3424.6,671.1C3424.6,675.61 3416.45,679.272 3406.41,679.272C3396.37,679.272 3388.22,675.61 3388.22,671.1C3388.22,666.589 3396.37,662.927 3406.41,662.927Z" style="fill:rgb(80,204,198);"/>
                </g>
                <g transform="matrix(0.143216,0,0,0.143216,486.546,344.754)">
                    <circle cx="3785.74" cy="429.037" r="57.746" style="fill:rgb(100,100,100);"/>
                </g>
                <g transform="matrix(0.0883451,0,0,0.0883451,694.274,368.296)">
                    <circle cx="3785.74" cy="429.037" r="57.746" style="fill:rgb(155,155,155);"/>
                </g>
                <g transform="matrix(0.457899,0,0,0.457899,-693.068,249.833)">
                    <circle cx="3785.74" cy="429.037" r="57.746" style="fill:rgb(100,100,100);"/>
                </g>
                <g transform="matrix(0.289655,0,0,0.289655,-56.141,322.015)">
                    <circle cx="3785.74" cy="429.037" r="57.746" style="fill:rgb(155,155,155);"/>
                </g>
                <g transform="matrix(1.84818,-0.273903,0.273903,1.84818,-5928.14,835.017)">
                    <ellipse cx="3668.58" cy="236.741" rx="14.422" ry="6.849" style="fill:rgb(100,100,100);"/>
                </g>
                <g transform="matrix(1,0,0,1,-2750.11,0)">
                    <path d="M3643.93,236.88L3640.31,271.499L3693.76,264.11L3672.53,231.748L3643.93,236.88Z" style="fill:rgb(100,100,100);"/>
                </g>
                <g transform="matrix(0.989196,-0.1466,0.1466,0.989196,-2755.54,538.112)">
                    <ellipse cx="3668.58" cy="236.741" rx="14.422" ry="6.849" style="fill:rgb(155,155,155);"/>
                </g>
                <g transform="matrix(-0.153702,0.311077,-0.896535,-0.442973,1992.31,-15.8353)">
                    <path d="M3539.61,737.33C3539.61,733.148 3529.83,729.753 3517.78,729.753C3505.72,729.753 3495.94,733.148 3495.94,737.33L3495.94,752.303C3495.94,756.484 3505.72,759.879 3517.78,759.879C3529.83,759.879 3539.61,756.484 3539.61,752.303L3539.61,737.33Z" style="fill:rgb(122,118,118);"/>
                </g>
                <g transform="matrix(-0.153702,0.311077,-0.896535,-0.442973,2019.09,-20.592)">
                    <path d="M3539.61,737.33C3539.61,733.148 3529.83,729.753 3517.78,729.753C3505.72,729.753 3495.94,733.148 3495.94,737.33L3495.94,752.303C3495.94,756.484 3505.72,759.879 3517.78,759.879C3529.83,759.879 3539.61,756.484 3539.61,752.303L3539.61,737.33Z" style="fill:rgb(122,118,118);"/>
                </g>
                <g transform="matrix(0.0229424,-0.346218,0.997812,0.0661208,208.642,1491.43)">
                    <path d="M3539.61,737.33C3539.61,733.148 3529.83,729.753 3517.78,729.753C3505.72,729.753 3495.94,733.148 3495.94,737.33L3495.94,752.303C3495.94,756.484 3505.72,759.879 3517.78,759.879C3529.83,759.879 3539.61,756.484 3539.61,752.303L3539.61,737.33Z" style="fill:rgb(36,156,237);"/>
                </g>
                <g transform="matrix(-0.049708,-0.343398,0.989685,-0.14326,361.678,1515.95)">
                    <path d="M3539.61,737.33C3539.61,733.148 3529.83,729.753 3517.78,729.753C3505.72,729.753 3495.94,733.148 3495.94,737.33L3495.94,752.303C3495.94,756.484 3505.72,759.879 3517.78,759.879C3529.83,759.879 3539.61,756.484 3539.61,752.303L3539.61,737.33Z" style="fill:rgb(36,156,237);"/>
                </g>
                <g transform="matrix(-0.241515,-0.249126,0.717988,-0.696055,1078.81,1709.49)">
                    <path d="M3539.61,737.33C3539.61,733.148 3529.83,729.753 3517.78,729.753C3505.72,729.753 3495.94,733.148 3495.94,737.33L3495.94,752.303C3495.94,756.484 3505.72,759.879 3517.78,759.879C3529.83,759.879 3539.61,756.484 3539.61,752.303L3539.61,737.33Z" style="fill:rgb(36,156,237);"/>
                </g>
                <g transform="matrix(-0.27036,-0.217483,0.626792,-0.779186,1296.07,1738.33)">
                    <path d="M3539.61,737.33C3539.61,733.148 3529.83,729.753 3517.78,729.753C3505.72,729.753 3495.94,733.148 3495.94,737.33L3495.94,752.303C3495.94,756.484 3505.72,759.879 3517.78,759.879C3529.83,759.879 3539.61,756.484 3539.61,752.303L3539.61,737.33Z" style="fill:rgb(36,156,237);"/>
                </g>
                <g transform="matrix(-0.328871,-0.110623,0.318818,-0.947816,1549.75,1547.59)">
                    <path d="M3539.61,737.33C3539.61,733.148 3529.83,729.753 3517.78,729.753C3505.72,729.753 3495.94,733.148 3495.94,737.33L3495.94,752.303C3495.94,756.484 3505.72,759.879 3517.78,759.879C3529.83,759.879 3539.61,756.484 3539.61,752.303L3539.61,737.33Z" style="fill:rgb(36,156,237);"/>
                </g>
                <g transform="matrix(-0.336667,0.0839573,-0.241968,-0.970284,2014.79,1136)">
                    <path d="M3539.61,737.33C3539.61,733.148 3529.83,729.753 3517.78,729.753C3505.72,729.753 3495.94,733.148 3495.94,737.33L3495.94,752.303C3495.94,756.484 3505.72,759.879 3517.78,759.879C3529.83,759.879 3539.61,756.484 3539.61,752.303L3539.61,737.33Z" style="fill:rgb(36,156,237);"/>
                </g>
                <g transform="matrix(-0.333497,0.0957756,-0.276028,-0.961149,2057.7,1094.2)">
                    <path d="M3539.61,737.33C3539.61,733.148 3529.83,729.753 3517.78,729.753C3505.72,729.753 3495.94,733.148 3495.94,737.33L3495.94,752.303C3495.94,756.484 3505.72,759.879 3517.78,759.879C3529.83,759.879 3539.61,756.484 3539.61,752.303L3539.61,737.33Z" style="fill:rgb(36,156,237);"/>
                </g>
                <g transform="matrix(-0.00548534,0.346934,-0.999875,-0.0158089,1740.23,-349.804)">
                    <path d="M3539.61,737.33C3539.61,733.148 3529.83,729.753 3517.78,729.753C3505.72,729.753 3495.94,733.148 3495.94,737.33L3495.94,752.303C3495.94,756.484 3505.72,759.879 3517.78,759.879C3529.83,759.879 3539.61,756.484 3539.61,752.303L3539.61,737.33Z" style="fill:rgb(36,156,237);"/>
                </g>
                <g transform="matrix(-0.00548534,0.346934,-0.999875,-0.0158089,1770.36,-323.531)">
                    <path d="M3539.61,737.33C3539.61,733.148 3529.83,729.753 3517.78,729.753C3505.72,729.753 3495.94,733.148 3495.94,737.33L3495.94,752.303C3495.94,756.484 3505.72,759.879 3517.78,759.879C3529.83,759.879 3539.61,756.484 3539.61,752.303L3539.61,737.33Z" style="fill:rgb(36,156,237);"/>
                </g>
                <g transform="matrix(0.27658,0.209516,-0.603833,0.797111,735.354,-553.915)">
                    <path d="M3539.61,737.33C3539.61,733.148 3529.83,729.753 3517.78,729.753C3505.72,729.753 3495.94,733.148 3495.94,737.33L3495.94,752.303C3495.94,756.484 3505.72,759.879 3517.78,759.879C3529.83,759.879 3539.61,756.484 3539.61,752.303L3539.61,737.33Z" style="fill:rgb(36,156,237);"/>
                </g>
                <g transform="matrix(0.293944,0.184364,-0.531343,0.847157,608.182,-549.52)">
                    <path d="M3539.61,737.33C3539.61,733.148 3529.83,729.753 3517.78,729.753C3505.72,729.753 3495.94,733.148 3495.94,737.33L3495.94,752.303C3495.94,756.484 3505.72,759.879 3517.78,759.879C3529.83,759.879 3539.61,756.484 3539.61,752.303L3539.61,737.33Z" style="fill:rgb(36,156,237);"/>
                </g>
                <g transform="matrix(0.34327,-0.0505859,0.14579,0.989316,25.198,-60.9766)">
                    <path d="M3539.61,737.33C3539.61,733.148 3529.83,729.753 3517.78,729.753C3505.72,729.753 3495.94,733.148 3495.94,737.33L3495.94,752.303C3495.94,756.484 3505.72,759.879 3517.78,759.879C3529.83,759.879 3539.61,756.484 3539.61,752.303L3539.61,737.33Z" style="fill:rgb(36,156,237);"/>
                </g>
                <g transform="matrix(0.34327,-0.0505859,0.14579,0.989316,-48.9108,-90.9445)">
                    <path d="M3539.61,737.33C3539.61,733.148 3529.83,729.753 3517.78,729.753C3505.72,729.753 3495.94,733.148 3495.94,737.33L3495.94,752.303C3495.94,756.484 3505.72,759.879 3517.78,759.879C3529.83,759.879 3539.61,756.484 3539.61,752.303L3539.61,737.33Z" style="fill:rgb(36,156,237);"/>
                </g>
                <g transform="matrix(0.314801,-0.145923,0.420554,0.907268,-521.23,470.474)">
                    <path d="M3539.61,737.33C3539.61,733.148 3529.83,729.753 3517.78,729.753C3505.72,729.753 3495.94,733.148 3495.94,737.33L3495.94,752.303C3495.94,756.484 3505.72,759.879 3517.78,759.879C3529.83,759.879 3539.61,756.484 3539.61,752.303L3539.61,737.33Z" style="fill:rgb(36,156,237);"/>
                </g>
                <g transform="matrix(0.186829,-0.292384,0.84266,0.538446,-539.384,1536.35)">
                    <path d="M3539.61,737.33C3539.61,733.148 3529.83,729.753 3517.78,729.753C3505.72,729.753 3495.94,733.148 3495.94,737.33L3495.94,752.303C3495.94,756.484 3505.72,759.879 3517.78,759.879C3529.83,759.879 3539.61,756.484 3539.61,752.303L3539.61,737.33Z" style="fill:rgb(36,156,237);"/>
                </g>
                <g transform="matrix(-0.218039,-0.269912,0.777894,-0.628395,1385.79,2314.77)">
                    <path d="M3539.61,737.33C3539.61,733.148 3529.83,729.753 3517.78,729.753C3505.72,729.753 3495.94,733.148 3495.94,737.33L3495.94,752.303C3495.94,756.484 3505.72,759.879 3517.78,759.879C3529.83,759.879 3539.61,756.484 3539.61,752.303L3539.61,737.33Z" style="fill:rgb(36,156,237);"/>
                </g>
                <g transform="matrix(-0.328035,0.113077,-0.325892,-0.945407,2056.32,1060.84)">
                    <path d="M3539.61,737.33C3539.61,733.148 3529.83,729.753 3517.78,729.753C3505.72,729.753 3495.94,733.148 3495.94,737.33L3495.94,752.303C3495.94,756.484 3505.72,759.879 3517.78,759.879C3529.83,759.879 3539.61,756.484 3539.61,752.303L3539.61,737.33Z" style="fill:rgb(36,156,237);"/>
                </g>
            </g>
        </g>
    </g>
</svg>
